<?xml version="1.0" encoding="UTF-8" standalone="no"?>
<!DOCTYPE svg PUBLIC "-//W3C//DTD SVG 1.1//EN"
 "http://www.w3.org/Graphics/SVG/1.1/DTD/svg11.dtd">
<!-- Generated by graphviz version 12.1.2 (20240928.0832)
 -->
<!-- Title: oekaki Pages: 1 -->
<svg width="745pt" height="596pt"
 viewBox="0.00 0.00 745.45 596.40" xmlns="http://www.w3.org/2000/svg" xmlns:xlink="http://www.w3.org/1999/xlink">
<g id="graph0" class="graph" transform="scale(1 1) rotate(0) translate(4 592.4)">
<title>oekaki</title>
<polygon fill="white" stroke="none" points="-4,4 -4,-592.4 741.45,-592.4 741.45,4 -4,4"/>
<text text-anchor="middle" x="368.72" y="-570" font-family="Helvetica,sans-Serif" font-size="16.00">three&#45;tier example</text>
<g id="clust1" class="cluster">
<title>cluster_aws_vpc.main</title>
<path fill="#fbfcfe" stroke="#5b7fa6" stroke-width="1.4" d="M20,-115.2C20,-115.2 717.45,-115.2 717.45,-115.2 723.45,-115.2 729.45,-121.2 729.45,-127.2 729.45,-127.2 729.45,-541.2 729.45,-541.2 729.45,-547.2 723.45,-553.2 717.45,-553.2 717.45,-553.2 20,-553.2 20,-553.2 14,-553.2 8,-547.2 8,-541.2 8,-541.2 8,-127.2 8,-127.2 8,-121.2 14,-115.2 20,-115.2"/>
<text text-anchor="middle" x="37.4" y="-540.2" font-family="Helvetica,sans-Serif" font-size="10.00" fill="#33506b">vpc: main</text>
</g>
<g id="clust2" class="cluster">
<title>cluster_aws_subnet.private_a</title>
<path fill="#f6f8fa" stroke="#9aa7b4" stroke-width="1.4" d="M41.82,-129.2C41.82,-129.2 108.3,-129.2 108.3,-129.2 114.3,-129.2 120.3,-135.2 120.3,-141.2 120.3,-141.2 120.3,-165.2 120.3,-165.2 120.3,-171.2 114.3,-177.2 108.3,-177.2 108.3,-177.2 41.82,-177.2 41.82,-177.2 35.82,-177.2 29.82,-171.2 29.82,-165.2 29.82,-165.2 29.82,-141.2 29.82,-141.2 29.82,-135.2 35.82,-129.2 41.82,-129.2"/>
<text text-anchor="middle" x="75.06" y="-164.2" font-family="Helvetica,sans-Serif" font-size="10.00" fill="#4a5763">subnet: private&#45;a</text>
</g>
<g id="clust3" class="cluster">
<title>cluster_aws_subnet.private_c</title>
<path fill="#f6f8fa" stroke="#9aa7b4" stroke-width="1.4" d="M42.1,-191.2C42.1,-191.2 108.02,-191.2 108.02,-191.2 114.02,-191.2 120.02,-197.2 120.02,-203.2 120.02,-203.2 120.02,-227.2 120.02,-227.2 120.02,-233.2 114.02,-239.2 108.02,-239.2 108.02,-239.2 42.1,-239.2 42.1,-239.2 36.1,-239.2 30.1,-233.2 30.1,-227.2 30.1,-227.2 30.1,-203.2 30.1,-203.2 30.1,-197.2 36.1,-191.2 42.1,-191.2"/>
<text text-anchor="middle" x="75.06" y="-226.2" font-family="Helvetica,sans-Serif" font-size="10.00" fill="#4a5763">subnet: private&#45;c</text>
</g>
<g id="clust4" class="cluster">
<title>cluster_aws_subnet.public_a</title>
<path fill="#f6f8fa" stroke="#9aa7b4" stroke-width="1.4" d="M72.2,-381.2C72.2,-381.2 315.61,-381.2 315.61,-381.2 321.61,-381.2 327.61,-387.2 327.61,-393.2 327.61,-393.2 327.61,-455.2 327.61,-455.2 327.61,-461.2 321.61,-467.2 315.61,-467.2 315.61,-467.2 72.2,-467.2 72.2,-467.2 66.2,-467.2 60.2,-461.2 60.2,-455.2 60.2,-455.2 60.2,-393.2 60.2,-393.2 60.2,-387.2 66.2,-381.2 72.2,-381.2"/>
<text text-anchor="middle" x="103.5" y="-454.2" font-family="Helvetica,sans-Serif" font-size="10.00" fill="#4a5763">subnet: public&#45;a</text>
</g>
<g id="clust5" class="cluster">
<title>cluster_aws_subnet.public_c</title>
<path fill="#f6f8fa" stroke="#9aa7b4" stroke-width="1.4" d="M44.04,-305.2C44.04,-305.2 106.08,-305.2 106.08,-305.2 112.08,-305.2 118.08,-311.2 118.08,-317.2 118.08,-317.2 118.08,-341.2 118.08,-341.2 118.08,-347.2 112.08,-353.2 106.08,-353.2 106.08,-353.2 44.04,-353.2 44.04,-353.2 38.04,-353.2 32.04,-347.2 32.04,-341.2 32.04,-341.2 32.04,-317.2 32.04,-317.2 32.04,-311.2 38.04,-305.2 44.04,-305.2"/>
<text text-anchor="middle" x="75.06" y="-340.2" font-family="Helvetica,sans-Serif" font-size="10.00" fill="#4a5763">subnet: public&#45;c</text>
</g>
<!-- anchor_aws_vpc.main -->
<!-- anchor_aws_subnet.private_a -->
<!-- anchor_aws_subnet.private_c -->
<!-- anchor_aws_subnet.public_a -->
<!-- aws_instance.bastion -->
<g id="node5" class="node">
<title>aws_instance.bastion</title>
<g id="a_node5"><a xlink:title="aws_instance.bastion&#10;main.tf:270&#10;ami = ami&#45;0d52744d6551d851e&#10;instance_type = t3.micro">
<path fill="#e7f5ec" stroke="#3f9159" stroke-width="1.2" d="M301.61,-433.4C301.61,-433.4 240.65,-433.4 240.65,-433.4 234.65,-433.4 228.65,-427.4 228.65,-421.4 228.65,-421.4 228.65,-407 228.65,-407 228.65,-401 234.65,-395 240.65,-395 240.65,-395 301.61,-395 301.61,-395 307.61,-395 313.61,-401 313.61,-407 313.61,-407 313.61,-421.4 313.61,-421.4 313.61,-427.4 307.61,-433.4 301.61,-433.4"/>
<text text-anchor="middle" x="271.13" y="-417.2" font-family="Helvetica,sans-Serif" font-size="10.00" fill="#1c4429">bastion</text>
<text text-anchor="middle" x="271.13" y="-405.2" font-family="Helvetica,sans-Serif" font-size="10.00" fill="#1c4429">instance</text>
</a>
</g>
</g>
<!-- aws_security_group.bastion -->
<g id="node15" class="node">
<title>aws_security_group.bastion</title>
<g id="a_node15"><a xlink:title="aws_security_group.bastion&#10;main.tf:125&#10;description = Operator jump host&#10;name = bastion">
<path fill="#fdf0e3" stroke="#c97b1e" stroke-width="1.2" d="M514.77,-429.4C514.77,-429.4 419.97,-429.4 419.97,-429.4 413.97,-429.4 407.97,-423.4 407.97,-417.4 407.97,-417.4 407.97,-403 407.97,-403 407.97,-397 413.97,-391 419.97,-391 419.97,-391 514.77,-391 514.77,-391 520.77,-391 526.77,-397 526.77,-403 526.77,-403 526.77,-417.4 526.77,-417.4 526.77,-423.4 520.77,-429.4 514.77,-429.4"/>
<text text-anchor="middle" x="467.37" y="-413.2" font-family="Helvetica,sans-Serif" font-size="10.00" fill="#5e3a0c">bastion</text>
<text text-anchor="middle" x="467.37" y="-401.2" font-family="Helvetica,sans-Serif" font-size="10.00" fill="#5e3a0c">security_group</text>
</a>
</g>
</g>
<!-- aws_instance.bastion&#45;&gt;aws_security_group.bastion -->
<g id="edge7" class="edge">
<title>aws_instance.bastion&#45;&gt;aws_security_group.bastion</title>
<g id="a_edge7"><a xlink:title="vpc_security_group_ids">
<path fill="none" stroke="#8a9099" stroke-width="1.1" d="M313.8,-413.34C338.75,-412.83 371.06,-412.16 399.51,-411.58"/>
<polygon fill="#8a9099" stroke="#8a9099" stroke-width="1.1" points="399.21,-414.03 406.15,-411.44 399.1,-409.13 399.21,-414.03"/>
</a>
</g>
</g>
<!-- anchor_aws_subnet.public_c -->
<!-- aws_db_instance.main -->
<g id="node7" class="node">
<title>aws_db_instance.main</title>
<g id="a_node7"><a xlink:title="aws_db_instance.main&#10;main.tf:254&#10;allocated_storage = 100&#10;engine = postgres&#10;engine_version = 16.3&#10;instance_class = db.t4g.medium&#10;multi_az = true">
<path fill="#f0eafc" stroke="#7a52c7" stroke-width="1.2" d="M115.12,-291.4C115.12,-291.4 34,-291.4 34,-291.4 28,-291.4 22,-285.4 22,-279.4 22,-279.4 22,-265 22,-265 22,-259 28,-253 34,-253 34,-253 115.12,-253 115.12,-253 121.12,-253 127.12,-259 127.12,-265 127.12,-265 127.12,-279.4 127.12,-279.4 127.12,-285.4 121.12,-291.4 115.12,-291.4"/>
<text text-anchor="middle" x="74.56" y="-275.2" font-family="Helvetica,sans-Serif" font-size="10.00" fill="#38215e">main</text>
<text text-anchor="middle" x="74.56" y="-263.2" font-family="Helvetica,sans-Serif" font-size="10.00" fill="#38215e">db_instance</text>
</a>
</g>
</g>
<!-- aws_db_subnet_group.main -->
<g id="node8" class="node">
<title>aws_db_subnet_group.main</title>
<g id="a_node8"><a xlink:title="aws_db_subnet_group.main&#10;main.tf:249&#10;name = main">
<path fill="#f0eafc" stroke="#7a52c7" stroke-width="1.2" d="M326.09,-354.4C326.09,-354.4 216.17,-354.4 216.17,-354.4 210.17,-354.4 204.17,-348.4 204.17,-342.4 204.17,-342.4 204.17,-328 204.17,-328 204.17,-322 210.17,-316 216.17,-316 216.17,-316 326.09,-316 326.09,-316 332.09,-316 338.09,-322 338.09,-328 338.09,-328 338.09,-342.4 338.09,-342.4 338.09,-348.4 332.09,-354.4 326.09,-354.4"/>
<text text-anchor="middle" x="271.13" y="-338.2" font-family="Helvetica,sans-Serif" font-size="10.00" fill="#38215e">main</text>
<text text-anchor="middle" x="271.13" y="-326.2" font-family="Helvetica,sans-Serif" font-size="10.00" fill="#38215e">db_subnet_group</text>
</a>
</g>
</g>
<!-- aws_db_instance.main&#45;&gt;aws_db_subnet_group.main -->
<g id="edge1" class="edge">
<title>aws_db_instance.main&#45;&gt;aws_db_subnet_group.main</title>
<g id="a_edge1"><a xlink:title="db_subnet_group_name">
<path fill="none" stroke="#8a9099" stroke-width="1.1" d="M127.44,-289C150.1,-296.34 176.99,-305.04 201.28,-312.91"/>
<polygon fill="#8a9099" stroke="#8a9099" stroke-width="1.1" points="200.42,-315.2 207.83,-315.03 201.93,-310.54 200.42,-315.2"/>
</a>
</g>
</g>
<!-- aws_security_group.db -->
<g id="node16" class="node">
<title>aws_security_group.db</title>
<g id="a_node16"><a xlink:title="aws_security_group.db&#10;main.tf:153&#10;description = PostgreSQL&#10;name = db">
<path fill="#fdf0e3" stroke="#c97b1e" stroke-width="1.2" d="M318.53,-291.4C318.53,-291.4 223.73,-291.4 223.73,-291.4 217.73,-291.4 211.73,-285.4 211.73,-279.4 211.73,-279.4 211.73,-265 211.73,-265 211.73,-259 217.73,-253 223.73,-253 223.73,-253 318.53,-253 318.53,-253 324.53,-253 330.53,-259 330.53,-265 330.53,-265 330.53,-279.4 330.53,-279.4 330.53,-285.4 324.53,-291.4 318.53,-291.4"/>
<text text-anchor="middle" x="271.13" y="-275.2" font-family="Helvetica,sans-Serif" font-size="10.00" fill="#5e3a0c">db</text>
<text text-anchor="middle" x="271.13" y="-263.2" font-family="Helvetica,sans-Serif" font-size="10.00" fill="#5e3a0c">security_group</text>
</a>
</g>
</g>
<!-- aws_db_instance.main&#45;&gt;aws_security_group.db -->
<g id="edge2" class="edge">
<title>aws_db_instance.main&#45;&gt;aws_security_group.db</title>
<g id="a_edge2"><a xlink:title="vpc_security_group_ids">
<path fill="none" stroke="#8a9099" stroke-width="1.1" d="M127.44,-272.2C150.61,-272.2 178.19,-272.2 202.91,-272.2"/>
<polygon fill="#8a9099" stroke="#8a9099" stroke-width="1.1" points="202.85,-274.65 209.85,-272.2 202.85,-269.75 202.85,-274.65"/>
</a>
</g>
</g>
<!-- aws_ecs_service.api -->
<g id="node9" class="node">
<title>aws_ecs_service.api</title>
<g id="a_node9"><a xlink:title="aws_ecs_service.api&#10;main.tf:230&#10;desired_count = 3&#10;launch_type = FARGATE&#10;name = api">
<path fill="#e7f5ec" stroke="#3f9159" stroke-width="1.2" d="M310.97,-198.4C310.97,-198.4 231.29,-198.4 231.29,-198.4 225.29,-198.4 219.29,-192.4 219.29,-186.4 219.29,-186.4 219.29,-172 219.29,-172 219.29,-166 225.29,-160 231.29,-160 231.29,-160 310.97,-160 310.97,-160 316.97,-160 322.97,-166 322.97,-172 322.97,-172 322.97,-186.4 322.97,-186.4 322.97,-192.4 316.97,-198.4 310.97,-198.4"/>
<text text-anchor="middle" x="271.13" y="-182.2" font-family="Helvetica,sans-Serif" font-size="10.00" fill="#1c4429">api</text>
<text text-anchor="middle" x="271.13" y="-170.2" font-family="Helvetica,sans-Serif" font-size="10.00" fill="#1c4429">ecs_service</text>
</a>
</g>
</g>
<!-- aws_lb_target_group.api -->
<g id="node12" class="node">
<title>aws_lb_target_group.api</title>
<g id="a_node12"><a xlink:title="aws_lb_target_group.api&#10;main.tf:191&#10;port = 8080&#10;protocol = HTTP&#10;target_type = ip">
<path fill="#e8f0fe" stroke="#3b6fd4" stroke-width="1.2" d="M517.65,-362.4C517.65,-362.4 417.09,-362.4 417.09,-362.4 411.09,-362.4 405.09,-356.4 405.09,-350.4 405.09,-350.4 405.09,-336 405.09,-336 405.09,-330 411.09,-324 417.09,-324 417.09,-324 517.65,-324 517.65,-324 523.65,-324 529.65,-330 529.65,-336 529.65,-336 529.65,-350.4 529.65,-350.4 529.65,-356.4 523.65,-362.4 517.65,-362.4"/>
<text text-anchor="middle" x="467.37" y="-346.2" font-family="Helvetica,sans-Serif" font-size="10.00" fill="#16305e">api</text>
<text text-anchor="middle" x="467.37" y="-334.2" font-family="Helvetica,sans-Serif" font-size="10.00" fill="#16305e">lb_target_group</text>
</a>
</g>
</g>
<!-- aws_ecs_service.api&#45;&gt;aws_lb_target_group.api -->
<g id="edge5" class="edge">
<title>aws_ecs_service.api&#45;&gt;aws_lb_target_group.api</title>
<g id="a_edge5"><a xlink:title="load_balancer">
<path fill="none" stroke="#8a9099" stroke-width="1.1" d="M294.27,-198.78C307.29,-210.52 323.93,-225.9 338.09,-240.2 365.09,-267.48 366.01,-280.34 396.09,-304.2 403.03,-309.71 410.86,-314.89 418.71,-319.56"/>
<polygon fill="#8a9099" stroke="#8a9099" stroke-width="1.1" points="417.16,-321.5 424.45,-322.87 419.61,-317.25 417.16,-321.5"/>
</a>
</g>
</g>
<!-- aws_security_group.app -->
<g id="node14" class="node">
<title>aws_security_group.app</title>
<g id="a_node14"><a xlink:title="aws_security_group.app&#10;main.tf:100&#10;description = ECS tasks&#10;name = app">
<path fill="#fdf0e3" stroke="#c97b1e" stroke-width="1.2" d="M514.77,-291.4C514.77,-291.4 419.97,-291.4 419.97,-291.4 413.97,-291.4 407.97,-285.4 407.97,-279.4 407.97,-279.4 407.97,-265 407.97,-265 407.97,-259 413.97,-253 419.97,-253 419.97,-253 514.77,-253 514.77,-253 520.77,-253 526.77,-259 526.77,-265 526.77,-265 526.77,-279.4 526.77,-279.4 526.77,-285.4 520.77,-291.4 514.77,-291.4"/>
<text text-anchor="middle" x="467.37" y="-275.2" font-family="Helvetica,sans-Serif" font-size="10.00" fill="#5e3a0c">app</text>
<text text-anchor="middle" x="467.37" y="-263.2" font-family="Helvetica,sans-Serif" font-size="10.00" fill="#5e3a0c">security_group</text>
</a>
</g>
</g>
<!-- aws_ecs_service.api&#45;&gt;aws_security_group.app -->
<g id="edge6" class="edge">
<title>aws_ecs_service.api&#45;&gt;aws_security_group.app</title>
<g id="a_edge6"><a xlink:title="network_configuration">
<path fill="none" stroke="#8a9099" stroke-width="1.1" d="M312.85,-198.7C343.43,-213.34 385.44,-233.45 417.79,-248.94"/>
<polygon fill="#8a9099" stroke="#8a9099" stroke-width="1.1" points="416.49,-251.04 423.86,-251.85 418.61,-246.62 416.49,-251.04"/>
</a>
</g>
</g>
<!-- aws_ecs_cluster.main -->
<g id="node17" class="node">
<title>aws_ecs_cluster.main</title>
<g id="a_node17"><a xlink:title="aws_ecs_cluster.main&#10;main.tf:210&#10;name = main">
<path fill="#e7f5ec" stroke="#3f9159" stroke-width="1.2" d="M505.77,-101.4C505.77,-101.4 428.97,-101.4 428.97,-101.4 422.97,-101.4 416.97,-95.4 416.97,-89.4 416.97,-89.4 416.97,-75 416.97,-75 416.97,-69 422.97,-63 428.97,-63 428.97,-63 505.77,-63 505.77,-63 511.77,-63 517.77,-69 517.77,-75 517.77,-75 517.77,-89.4 517.77,-89.4 517.77,-95.4 511.77,-101.4 505.77,-101.4"/>
<text text-anchor="middle" x="467.37" y="-85.2" font-family="Helvetica,sans-Serif" font-size="10.00" fill="#1c4429">main</text>
<text text-anchor="middle" x="467.37" y="-73.2" font-family="Helvetica,sans-Serif" font-size="10.00" fill="#1c4429">ecs_cluster</text>
</a>
</g>
</g>
<!-- aws_ecs_service.api&#45;&gt;aws_ecs_cluster.main -->
<g id="edge3" class="edge">
<title>aws_ecs_service.api&#45;&gt;aws_ecs_cluster.main</title>
<g id="a_edge3"><a xlink:title="cluster">
<path fill="none" stroke="#8a9099" stroke-width="1.1" d="M303.8,-159.59C328.45,-144.77 363.78,-124.43 396.09,-109.2 400.22,-107.25 404.54,-105.33 408.92,-103.46"/>
<polygon fill="#8a9099" stroke="#8a9099" stroke-width="1.1" points="409.77,-105.76 415.29,-100.81 407.89,-101.24 409.77,-105.76"/>
</a>
</g>
</g>
<!-- aws_ecs_task_definition.api -->
<g id="node18" class="node">
<title>aws_ecs_task_definition.api</title>
<g id="a_node18"><a xlink:title="aws_ecs_task_definition.api&#10;main.tf:214&#10;cpu = 512&#10;family = api&#10;memory = 1024&#10;network_mode = awsvpc">
<path fill="#e7f5ec" stroke="#3f9159" stroke-width="1.2" d="M526.65,-38.4C526.65,-38.4 408.09,-38.4 408.09,-38.4 402.09,-38.4 396.09,-32.4 396.09,-26.4 396.09,-26.4 396.09,-12 396.09,-12 396.09,-6 402.09,0 408.09,0 408.09,0 526.65,0 526.65,0 532.65,0 538.65,-6 538.65,-12 538.65,-12 538.65,-26.4 538.65,-26.4 538.65,-32.4 532.65,-38.4 526.65,-38.4"/>
<text text-anchor="middle" x="467.37" y="-22.2" font-family="Helvetica,sans-Serif" font-size="10.00" fill="#1c4429">api</text>
<text text-anchor="middle" x="467.37" y="-10.2" font-family="Helvetica,sans-Serif" font-size="10.00" fill="#1c4429">ecs_task_definition</text>
</a>
</g>
</g>
<!-- aws_ecs_service.api&#45;&gt;aws_ecs_task_definition.api -->
<g id="edge4" class="edge">
<title>aws_ecs_service.api&#45;&gt;aws_ecs_task_definition.api</title>
<g id="a_edge4"><a xlink:title="task_definition">
<path fill="none" stroke="#8a9099" stroke-width="1.1" d="M286.66,-159.86C308.07,-132.44 350.53,-82.07 396.09,-50.2 399.84,-47.57 403.86,-45.09 407.99,-42.77"/>
<polygon fill="#8a9099" stroke="#8a9099" stroke-width="1.1" points="409.04,-44.98 414.07,-39.53 406.74,-40.66 409.04,-44.98"/>
</a>
</g>
</g>
<!-- aws_lb.public -->
<g id="node10" class="node">
<title>aws_lb.public</title>
<g id="a_node10"><a xlink:title="aws_lb.public&#10;main.tf:179&#10;internal = false&#10;load_balancer_type = application&#10;name = public">
<path fill="#e8f0fe" stroke="#3b6fd4" stroke-width="1.2" d="M491.37,-505.4C491.37,-505.4 443.37,-505.4 443.37,-505.4 437.37,-505.4 431.37,-499.4 431.37,-493.4 431.37,-493.4 431.37,-479 431.37,-479 431.37,-473 437.37,-467 443.37,-467 443.37,-467 491.37,-467 491.37,-467 497.37,-467 503.37,-473 503.37,-479 503.37,-479 503.37,-493.4 503.37,-493.4 503.37,-499.4 497.37,-505.4 491.37,-505.4"/>
<text text-anchor="middle" x="467.37" y="-489.2" font-family="Helvetica,sans-Serif" font-size="10.00" fill="#16305e">public</text>
<text text-anchor="middle" x="467.37" y="-477.2" font-family="Helvetica,sans-Serif" font-size="10.00" fill="#16305e">lb</text>
</a>
</g>
</g>
<!-- aws_security_group.alb -->
<g id="node13" class="node">
<title>aws_security_group.alb</title>
<g id="a_node13"><a xlink:title="aws_security_group.alb&#10;main.tf:75&#10;description = Public entrypoint&#10;name = alb">
<path fill="#fdf0e3" stroke="#c97b1e" stroke-width="1.2" d="M703.45,-385.4C703.45,-385.4 608.65,-385.4 608.65,-385.4 602.65,-385.4 596.65,-379.4 596.65,-373.4 596.65,-373.4 596.65,-359 596.65,-359 596.65,-353 602.65,-347 608.65,-347 608.65,-347 703.45,-347 703.45,-347 709.45,-347 715.45,-353 715.45,-359 715.45,-359 715.45,-373.4 715.45,-373.4 715.45,-379.4 709.45,-385.4 703.45,-385.4"/>
<text text-anchor="middle" x="656.05" y="-369.2" font-family="Helvetica,sans-Serif" font-size="10.00" fill="#5e3a0c">alb</text>
<text text-anchor="middle" x="656.05" y="-357.2" font-family="Helvetica,sans-Serif" font-size="10.00" fill="#5e3a0c">security_group</text>
</a>
</g>
</g>
<!-- aws_lb.public&#45;&gt;aws_security_group.alb -->
<g id="edge8" class="edge">
<title>aws_lb.public&#45;&gt;aws_security_group.alb</title>
<g id="a_edge8"><a xlink:title="security_groups">
<path fill="none" stroke="#8a9099" stroke-width="1.1" d="M499.93,-466.61C512.07,-459.04 526.03,-450.27 538.65,-442.2 565.43,-425.07 595.48,-405.45 618.33,-390.43"/>
<polygon fill="#8a9099" stroke="#8a9099" stroke-width="1.1" points="619.59,-392.53 624.09,-386.64 616.9,-388.44 619.59,-392.53"/>
</a>
</g>
</g>
<!-- aws_lb_listener.http -->
<g id="node11" class="node">
<title>aws_lb_listener.http</title>
<g id="a_node11"><a xlink:title="aws_lb_listener.http&#10;main.tf:199&#10;port = 80&#10;protocol = HTTP">
<path fill="#e8f0fe" stroke="#3b6fd4" stroke-width="1.2" d="M306.65,-519.4C306.65,-519.4 235.61,-519.4 235.61,-519.4 229.61,-519.4 223.61,-513.4 223.61,-507.4 223.61,-507.4 223.61,-493 223.61,-493 223.61,-487 229.61,-481 235.61,-481 235.61,-481 306.65,-481 306.65,-481 312.65,-481 318.65,-487 318.65,-493 318.65,-493 318.65,-507.4 318.65,-507.4 318.65,-513.4 312.65,-519.4 306.65,-519.4"/>
<text text-anchor="middle" x="271.13" y="-503.2" font-family="Helvetica,sans-Serif" font-size="10.00" fill="#16305e">http</text>
<text text-anchor="middle" x="271.13" y="-491.2" font-family="Helvetica,sans-Serif" font-size="10.00" fill="#16305e">lb_listener</text>
</a>
</g>
</g>
<!-- aws_lb_listener.http&#45;&gt;aws_lb.public -->
<g id="edge9" class="edge">
<title>aws_lb_listener.http&#45;&gt;aws_lb.public</title>
<g id="a_edge9"><a xlink:title="load_balancer_arn">
<path fill="none" stroke="#8a9099" stroke-width="1.1" d="M318.65,-496.85C350.25,-494.57 391.76,-491.58 422.73,-489.35"/>
<polygon fill="#8a9099" stroke="#8a9099" stroke-width="1.1" points="422.7,-491.8 429.51,-488.86 422.35,-486.92 422.7,-491.8"/>
</a>
</g>
</g>
<!-- aws_lb_listener.http&#45;&gt;aws_lb_target_group.api -->
<g id="edge10" class="edge">
<title>aws_lb_listener.http&#45;&gt;aws_lb_target_group.api</title>
<g id="a_edge10"><a xlink:title="default_action">
<path fill="none" stroke="#8a9099" stroke-width="1.1" d="M318.98,-485.42C325.81,-482.06 332.43,-478.01 338.09,-473.2 375.74,-441.12 359.63,-411.64 396.09,-378.2 400.51,-374.15 405.48,-370.45 410.69,-367.11"/>
<polygon fill="#8a9099" stroke="#8a9099" stroke-width="1.1" points="411.75,-369.34 416.49,-363.64 409.22,-365.14 411.75,-369.34"/>
</a>
</g>
</g>
<!-- aws_security_group.app&#45;&gt;aws_security_group.alb -->
<g id="edge11" class="edge">
<title>aws_security_group.app&#45;&gt;aws_security_group.alb</title>
<g id="a_edge11"><a xlink:title="ingress">
<path fill="none" stroke="#8a9099" stroke-width="1.1" d="M507.05,-291.68C536.48,-306.5 577.12,-326.96 608.37,-342.69"/>
<polygon fill="#8a9099" stroke="#8a9099" stroke-width="1.1" points="607.25,-344.88 614.61,-345.84 609.46,-340.5 607.25,-344.88"/>
</a>
</g>
</g>
<!-- aws_security_group.db&#45;&gt;aws_security_group.app -->
<g id="edge12" class="edge">
<title>aws_security_group.db&#45;&gt;aws_security_group.app</title>
<g id="a_edge12"><a xlink:title="ingress">
<path fill="none" stroke="#8a9099" stroke-width="1.1" d="M330.93,-272.2C352.52,-272.2 377.11,-272.2 399.36,-272.2"/>
<polygon fill="#8a9099" stroke="#8a9099" stroke-width="1.1" points="399.1,-274.65 406.1,-272.2 399.1,-269.75 399.1,-274.65"/>
</a>
</g>
</g>
<!-- aws_security_group.db&#45;&gt;aws_security_group.bastion -->
<g id="edge13" class="edge">
<title>aws_security_group.db&#45;&gt;aws_security_group.bastion</title>
<g id="a_edge13"><a xlink:title="ingress">
<path fill="none" stroke="#8a9099" stroke-width="1.1" d="M320.48,-291.76C326.67,-295.16 332.71,-298.98 338.09,-303.2 370.4,-328.59 364.07,-349.45 396.09,-375.2 401.16,-379.28 406.8,-383.06 412.6,-386.51"/>
<polygon fill="#8a9099" stroke="#8a9099" stroke-width="1.1" points="411.26,-388.57 418.56,-389.88 413.67,-384.3 411.26,-388.57"/>
</a>
</g>
</g>
</g>
</svg>
